<?xml version="1.0" encoding="UTF-8" standalone="no"?>
<!-- Created with Inkscape (http://www.inkscape.org/) -->

<svg
   xmlns:dc="http://purl.org/dc/elements/1.1/"
   xmlns:cc="http://creativecommons.org/ns#"
   xmlns:rdf="http://www.w3.org/1999/02/22-rdf-syntax-ns#"
   xmlns:svg="http://www.w3.org/2000/svg"
   xmlns="http://www.w3.org/2000/svg"
   xmlns:sodipodi="http://sodipodi.sourceforge.net/DTD/sodipodi-0.dtd"
   xmlns:inkscape="http://www.inkscape.org/namespaces/inkscape"
   width="184.4014mm"
   height="53.269375mm"
   viewBox="0 0 184.4014 53.269375"
   version="1.1"
   id="svg5086"
   inkscape:version="0.92.1 r15371"
   sodipodi:docname="buteko_text.svg">
  <defs
     id="defs5080" />
  <sodipodi:namedview
     id="base"
     pagecolor="#ffffff"
     bordercolor="#666666"
     borderopacity="1.0"
     inkscape:pageopacity="0.0"
     inkscape:pageshadow="2"
     inkscape:zoom="0.35"
     inkscape:cx="424.18934"
     inkscape:cy="-485.04775"
     inkscape:document-units="mm"
     inkscape:current-layer="layer1"
     showgrid="false"
     inkscape:window-width="1857"
     inkscape:window-height="1057"
     inkscape:window-x="1421"
     inkscape:window-y="-8"
     inkscape:window-maximized="1" />
  <metadata
     id="metadata5083">
    <rdf:RDF>
      <cc:Work
         rdf:about="">
        <dc:format>image/svg+xml</dc:format>
        <dc:type
           rdf:resource="http://purl.org/dc/dcmitype/StillImage" />
        <dc:title></dc:title>
      </cc:Work>
    </rdf:RDF>
  </metadata>
  <g
     inkscape:label="Layer 1"
     inkscape:groupmode="layer"
     id="layer1"
     transform="translate(117.90308,44.110881)">
    <g
       id="g4676"
       transform="matrix(0.32274523,0,0,0.32274523,-712.05578,-265.79101)"
       inkscape:export-xdpi="96"
       inkscape:export-ydpi="96">
      <g
         id="g4684"
         transform="matrix(0.77712292,0,0,0.81230478,1645.338,-32.437917)">
        <path
           style="fill:#0c0c0c;stroke-width:0.36813733"
           d="m 934.41545,1087.6137 c -13.83941,-2.0754 -26.2413,-6.1366 -35.2189,-14.8811 -8.9199,-9.6497 -13.3762,-16.0178 -11.6522,-31.2346 1.724,-15.2167 10.95772,-41.68705 28.88559,-50.37197 4.04961,-1.93538 4.52562,-2.52056 3.08513,-3.79212 -1.03111,-0.91002 -6.02801,-2.00205 -9.17721,-2.00545 -3.94711,0 -6.5577,1.01504 -12.56541,4.90558 -2.54439,1.74954 -6.527,1.24675 -6.40289,-1.70391 0.12409,-2.95068 3.79831,-4.42848 6.82009,-5.949 26.77152,-8.48696 51.54152,4.33915 68.87191,21.34637 9.9068,9.8866 15.52221,19.6978 18.44869,29.7317 2.92642,10.034 0.68712,19.3498 -1.518,25.8466 -2.20509,6.4968 -10.1229,16.6876 -17.88808,21.3617 -8.76012,4.6095 -21.74081,8.0465 -31.68872,6.7462 z m 7.4808,-9.0708 c 9.38101,-0.8856 17.7102,-18.2233 17.4779,-33.0975 -0.23239,-14.8742 -6.19599,-28.3909 -17.5655,-44.713 -11.36949,-16.32203 -25.478,15.9372 -26.90009,34.455 -1.42211,18.5177 17.6067,44.2412 26.98769,43.3555 z"
           id="path4535-2-4"
           inkscape:connector-curvature="0"
           sodipodi:nodetypes="cczcccczcczzcczzzzz" />
        <path
           style="fill:#000000;stroke-width:0.12054918"
           d="m 829.03516,1083.9797 c -7.3446,-1.3963 -16.04039,-4.4064 -21.05181,-8.0946 -4.9358,-3.9386 -9.65949,-10.5882 -10.85469,-15.9893 -1.09562,-4.7563 -1.7549,-10.0164 -1.31271,-14.3134 0.15571,-1.197 0.15582,-2.731 0,-3.0217 -0.069,-0.1282 -0.20899,-0.2332 -0.31178,-0.2332 -3.91091,3.5949 -6.90121,8.8767 -9.41282,13.3207 -4.22957,6.7714 -7.5633,14.7868 -10.6757,21.4578 -0.98298,1.9375 -1.31638,4.2613 -2.61419,6.0504 -0.80981,1.0715 -2.30751,1.6009 -4.7902,1.6933 -2.28211,0.1247 -9.5237,0.3105 -9.52489,-1.981 0.89289,-4.9828 2.04319,-11.6411 2.88441,-16.4037 7.00928,-26.9883 8.61618,-59.244 12.12379,-83.68967 3.3801,-23.75745 2.59961,-55.70381 4.51379,-76.62035 0.7076,-4.70495 1.22491,-9.9138 3.33589,-13.50148 1.12062,-1.8489 2.3078,-2.712 4.55562,-3.3119 9.55659,-1.79889 10.25869,3.24146 9.45529,8.42519 -0.80338,5.18373 0.29339,50.89656 -0.83879,68.46125 -0.5376,23.18685 -1.4288,37.57186 -3.004,57.82816 0,0.7162 0.1668,0.9866 0.61378,0.9866 0.46422,0 1.32581,-0.8427 2.3413,-2.2898 13.06042,-13.3698 16.56072,-15.2155 29.49252,-25.809 10.66671,-10.22463 53.14969,-24.79241 52.41169,-11.97118 -1.3698,10.23142 -16.96681,23.04758 -28.31701,27.14298 -20.16487,5.5367 -35.73905,18.2844 -32.00795,37.3478 2.93219,11.1135 10.31952,16.8933 20.19461,19.6716 9.35091,2.0485 19.26231,1.4036 26.1188,-3.289 4.6287,-2.3198 12.70427,2.065 7.54505,7.4972 -4.31239,3.8556 -8.99401,7.4353 -14.4131,9.0739 -1.36591,0.3712 -2.6839,0.7475 -4.64118,1.3253 -7.50981,1.7143 -15.18741,1.4776 -21.81601,0.2371 z"
           id="path4533-5-9"
           inkscape:connector-curvature="0"
           sodipodi:nodetypes="cccccccccccccccczccscccccccccccc" />
        <path
           style="fill:#0c0c0c;stroke-width:0.35277775"
           d="m 619.04016,1044.907 c 0.2876,-19.2877 18.0332,-34.9359 31.4629,-47.08547 13.9043,-12.1001 27.91859,-15.44251 40.3946,-15.46018 16.85049,0.008 30.42039,6.49038 34.2429,13.89101 5.7581,11.63174 -1.7191,16.04654 -10.52071,23.20074 -8.8016,7.1542 -58.79409,19.32 -55.93781,13.0366 2.85631,-6.2835 17.65231,-8.6483 25.73462,-11.7939 8.08231,-3.1456 15.36959,-7.5186 19.40729,-10.937 4.0377,-3.4185 8.079,-3.4341 -1.72489,-11.30176 -9.8039,-7.86762 -26.3697,-6.63908 -35.49582,3.49536 -5.271,5.9375 -12.85258,13.9876 -16.12519,21.7106 -3.2726,7.7231 -5.18631,20.0965 -4.62179,24.5831 4.1906,41.6737 72.85159,14.7463 80.9399,10.6291 8.08829,-4.1172 20.5648,-15.1238 21.5627,-15.5355 1.9359,-0.7986 5.11379,-1.5925 4.96139,0.7251 -0.1524,2.3176 -0.73621,7.5767 -2.0441,10.4061 -3.85101,7.317 -10.77999,13.7205 -17.8254,17.5306 -7.0454,3.8102 -16.80181,10.4104 -52.0659,13.9513 -35.26401,3.5409 -62.6323,-21.7581 -62.34469,-41.0458 z"
           id="path4535-5-6"
           inkscape:connector-curvature="0"
           sodipodi:nodetypes="zccczzzzzczczczczzz" />
        <path
           style="fill:#0c0c0c;stroke-width:0.28563848"
           d="m 582.60446,1088.159 c -9.1183,-3.0751 -24.395,-9.4713 -22.66611,-19.9575 0.3561,-10.6403 2.48359,-24.0181 2.19141,-37.0323 -0.21262,-9.4689 -3.0023,-18.8893 -2.35302,-26.2189 0.53412,-4.5296 0.47522,-6.58981 -0.33469,-11.70289 -1.5375,-11.39614 1.6161,-25.72735 0.93181,-35.15922 -0.38921,-5.28862 -1.0123,-6.0196 -6.9836,-8.19247 -5.3589,-1.95004 -6.59662,-2.1421 -20.4665,-3.17752 -5.9572,-0.44468 -6.63879,-0.78887 -8.4342,-4.25918 -2.95302,-5.70794 -6.05222,-10.40331 -7.37751,-11.17744 -3.4229,-0.94598 -7.6982,0.80147 -11.3269,-1.17437 -0.6301,-0.36824 -1.736,-1.31055 -2.4577,-2.094 -0.3095,-1.15538 -2.9393,-1.56197 -3.3787,-2.3148 -0.3694,-0.68994 0.2514,-1.82843 1.1325,-2.07717 0.3893,-0.10996 1.5435,-0.43342 2.5646,-0.71884 3.2364,-0.90466 8.7526,-0.59754 11.6494,0.64856 1.20011,0.51618 2.16689,0.51123 3.18691,-0.0162 1.2123,-0.62685 6.2465,-1.00797 13.31839,-1.00821 4.92292,0.35755 7.9394,-0.56425 12.40599,-1.5584 9.61552,-2.1514 12.67402,-5.72737 22.63132,-7.02692 3.6022,-0.43764 3.408,0.13278 3.34339,-9.82074 -0.05,-7.73734 -0.013,-8.42751 0.5461,-10.15806 -0.86461,-5.91935 10.44209,-8.90302 13.6635,-3.33111 0.58769,1.1312 1.31921,7.09874 2.10661,17.18456 0.136,3.2483 0.16288,4.80894 2.91018,6.45885 3.57741,0.8369 6.90822,0.20971 10.6412,1.22514 2.35,0.68563 5.5463,1.58665 8.42632,2.37529 7.8799,3.04465 15.73249,6.03884 23.9998,6.66863 4.4155,0.30695 5.25629,0.29335 7.141,-0.1157 7.39118,-1.60414 6.9656,-1.55014 10.05239,-1.27461 2.37702,-0.32142 4.79391,1.6105 6.9169,1.65791 1.15249,0 1.7499,0.45132 2.2707,1.7158 0.4798,1.29153 0.061,2.51302 -1.08569,3.2946 -1.69341,1.1096 -7.03691,1.58375 -14.58971,1.29469 -3.71289,-0.1421 -4.5213,0.191 -6.3106,2.60046 -3.4848,3.62355 -4.79981,10.93946 -9.10439,12.85819 -1.03201,0.42751 -6.66541,0.38597 -11.00651,-0.0812 -9.30971,-0.45326 -18.44349,3.8125 -19.2904,11.15825 -0.44331,3.99361 -0.67839,27.16627 -0.29041,28.60913 -0.38348,1.76529 -0.62619,6.39124 -1.2714,6.67503 -1.54138,0.48921 -1.97159,2.57787 -1.70997,8.29986 0.49249,6.279 -2.59461,5.8449 -1.88632,11.2911 0.7398,5.6883 1.03359,10.1648 1.21729,18.5416 -0.4195,12.6525 -3.67429,33.0861 -0.69059,42.1568 -0.66119,2.9241 -2.4756,3.2285 0.2608,5.6999 1.0872,2.1075 6.94852,2.9137 6.70359,5.9115 -3.64329,4.3364 -12.46277,4.2816 -17.19659,3.322 z"
           id="path4535-1-1"
           inkscape:connector-curvature="0"
           sodipodi:nodetypes="ccscccsccccccccccccccccccccccccccscccccccccccccc" />
        <path
           style="fill:#0c0c0c;stroke-width:0.35277775"
           d="m 414.73155,977.73807 c 2.3659,-3.7454 6.0962,-7.10196 9.3024,-8.1544 17.647,-6.68732 22.4889,12.628 14.3867,18.9055 -7.7942,5.69978 -9.5174,44.87793 -7.4918,57.68773 0.202,0.7762 0.5256,2.6812 0.7192,4.2334 0.5566,4.4619 2.034,9.1503 4.4593,14.1507 9.4547,19.7488 40.9067,-7.2044 42.1484,-18.5948 -1.0665,-14.6782 -8.8442,-31.7046 -5.4525,-45.6555 3.0501,-8.29419 6.4575,-13.17586 13.7667,-15.51454 8.1074,-2.43236 18.2404,-1.19965 23.115,4.84241 6.5701,8.82459 3.4092,22.46993 1.8827,30.08003 -1.2825,6.3152 -4.1483,15.4349 -6.3662,20.2587 -1.6466,3.5814 -1.7996,4.8183 -0.8591,6.9446 0.9763,2.2071 5.2995,8.6644 8.2608,12.3387 6.26631,6.1106 17.746,12.5819 25.88562,10.4581 5.64848,-1.483 10.73859,6.6663 9.00178,9.3169 -1.8833,2.8742 -10.24969,3.6683 -19.2406,1.8603 -9.67669,-1.946 -22.9682,-8.5509 -32.2608,-16.0311 -3.7508,-3.0193 -3.8803,-2.9817 -9.8441,2.8583 -8.947,9.2498 -20.7724,15.3045 -31.6598,17.2536 -55.0628,5.9091 -52.6977,-71.5544 -39.7537,-107.23863 z"
           id="path4535-9-1"
           inkscape:connector-curvature="0"
           sodipodi:nodetypes="ccccccccccccccccccccc" />
        <path
           style="fill:#060606;stroke-width:0.23964429"
           d="m 267.96305,1086.9552 c -25.8201,-0.9637 -10.8677,-29.8483 -9.5733,-38.224 1.2946,-8.3757 4.2538,-65.17573 1.3541,-88.52108 -2.5815,-20.03048 -3.5764,-41.86673 -7.5647,-58.9275 -3.9883,-17.06076 17.5156,-15.46878 29.0432,-15.78263 47.6107,6.23479 72.7826,34.92265 59.3133,56.82459 -13.4693,21.90195 -16.9771,24.18814 -16.9556,24.6417 0.044,0.93362 1.4923,1.75487 6.1662,3.49679 12.5614,4.68169 20.3224,8.24961 28.6857,13.18748 17.3331,10.23386 30.9049,24.45675 35.1058,36.78995 4.442,13.0405 1.1193,25.473 -9.6543,36.1161 -19.5783,15.8146 -39.019,23.1532 -63.251,27.5101 -22.7349,3.6836 -41.655,3.2909 -52.6694,2.8885 z m 29.969,-16.2184 c 19.054,-2.8512 38.2752,-3.6219 54.6656,-12.8557 11.8,-6.7588 17.3883,-14.2932 18.2708,-24.6333 0.8244,-9.6635 -4.7905,-20.3338 -16.3044,-30.9832 -4.0986,-3.7909 -7.4526,-6.24902 -13.769,-10.09132 -6.9455,-4.22511 -11.3882,-6.34199 -21.9092,-10.43921 -2.1627,-0.43257 -33.7976,-10.18601 -35.973,-0.9284 -0.387,1.64684 0.4718,5.02973 0.4184,12.03459 -0.4203,18.11474 0.6398,31.02524 -1.414,53.41814 -2.0538,22.3929 -10.8365,27.0515 16.0148,24.4784 z m 8.6082,-119.41533 c 7.7674,-3.95036 16.9454,-22.41643 8.5066,-35.60732 -8.4388,-13.19088 -41.6314,-17.22855 -41.589,-10.9018 0.043,6.32674 5.2581,27.35835 6.0625,38.89232 0.5425,7.8864 -0.5145,13.24126 1.5347,16.28484 0.6786,1.00782 17.7176,-4.71768 25.4852,-8.66804 z"
           id="path4638-8"
           inkscape:connector-curvature="0"
           sodipodi:nodetypes="czczczsccscccccccccsczczzzcsz" />
      </g>
    </g>
  </g>
</svg>
